HIERARCHY
ROOT Hips
{
	OFFSET -3.958830 18.904000 13.208200
	CHANNELS 6 Xposition Yposition Zposition Zrotation Yrotation Xrotation 
	JOINT LHipJoint
	{
		OFFSET 0.000000 0.000000 0.000000
		CHANNELS 3 Zrotation Yrotation Xrotation
		JOINT LeftUpLeg
		{
			OFFSET 1.800000 -1.400000 0.085000
			CHANNELS 3 Zrotation Yrotation Xrotation
			JOINT LeftLeg
			{
				OFFSET 2.215000 -6.000000 0.000000
				CHANNELS 3 Zrotation Yrotation Xrotation
				JOINT LeftFoot
				{
					OFFSET 2.500000 -6.900000 0.000000
					CHANNELS 3 Zrotation Yrotation Xrotation
					JOINT LeftToeBase
					{
						OFFSET 0.200000 -0.500000 1.950000
						CHANNELS 3 Zrotation Yrotation Xrotation
						End Site
						{
							OFFSET 0.000000 0.000000 0.000000
						}
					}
				}
			}
		}
	}
	JOINT RHipJoint
	{
		OFFSET 0.000000 0.000000 0.000000
		CHANNELS 3 Zrotation Yrotation Xrotation
		JOINT RightUpLeg
		{
			OFFSET -1.800000 -1.400000 0.085000
			CHANNELS 3 Zrotation Yrotation Xrotation
			JOINT RightLeg
			{
				OFFSET -2.215000 -6.000000 0.000000
				CHANNELS 3 Zrotation Yrotation Xrotation
				JOINT RightFoot
				{
					OFFSET -2.500000 -6.900000 0.000000
					CHANNELS 3 Zrotation Yrotation Xrotation
					JOINT RightToeBase
					{
						OFFSET -0.200000 -0.500000 1.950000
						CHANNELS 3 Zrotation Yrotation Xrotation
						End Site
						{
							OFFSET 0.000000 0.000000 0.000000
						}
					}
				}
			}
		}
	}
	JOINT LowerBack
	{
		OFFSET 0.000000 0.000000 0.000000
		CHANNELS 3 Zrotation Yrotation Xrotation
		JOINT Spine
		{
			OFFSET -0.087000 1.940000 -0.288900
			CHANNELS 3 Zrotation Yrotation Xrotation
			JOINT Spine1
			{
				OFFSET 0.000000 1.950000 0.060000
				CHANNELS 3 Zrotation Yrotation Xrotation
				JOINT Neck
				{
					OFFSET 0.000000 0.000000 0.000000
					CHANNELS 3 Zrotation Yrotation Xrotation
					JOINT Neck1
					{
						OFFSET 0.000000 1.600000 0.340000
						CHANNELS 3 Zrotation Yrotation Xrotation
						JOINT Head
						{
							OFFSET 0.000000 1.667000 -0.240000
							CHANNELS 3 Zrotation Yrotation Xrotation
							End Site
							{
								OFFSET 0.000000 0.000000 0.000000
							}
						}
					}
				}
				JOINT LeftShoulder
				{
					OFFSET 0.000000 0.000000 0.000000
					CHANNELS 3 Zrotation Yrotation Xrotation
					JOINT LeftArm
					{
						OFFSET 2.700000 1.550000 -0.730000
						CHANNELS 3 Zrotation Yrotation Xrotation
						JOINT LeftForeArm
						{
							OFFSET 5.450000 0.000000 0.000000
							CHANNELS 3 Zrotation Yrotation Xrotation
							JOINT LeftHand
							{
								OFFSET 3.450000 0.000000 0.000000
								CHANNELS 3 Zrotation Yrotation Xrotation
								JOINT LeftHandIndex1
								{
									OFFSET 0.750000 0.000000 0.000000
									CHANNELS 3 Zrotation Yrotation Xrotation
									End Site
									{
										OFFSET 0.000000 0.000000 0.000000
									}
								}
							}
						}
					}
				}
				JOINT RightShoulder
				{
					OFFSET 0.000000 0.000000 0.000000
					CHANNELS 3 Zrotation Yrotation Xrotation
					JOINT RightArm
					{
						OFFSET -2.700000 1.550000 -0.730000
						CHANNELS 3 Zrotation Yrotation Xrotation
						JOINT RightForeArm
						{
							OFFSET -5.450000 0.000000 0.000000
							CHANNELS 3 Zrotation Yrotation Xrotation
							JOINT RightHand
							{
								OFFSET -3.450000 0.000000 0.000000
								CHANNELS 3 Zrotation Yrotation Xrotation
								JOINT RightHandIndex1
								{
									OFFSET -0.750000 0.000000 0.000000
									CHANNELS 3 Zrotation Yrotation Xrotation
									End Site
									{
										OFFSET 0.000000 0.000000 0.000000
									}
								}
							}
						}
					}
				}
			}
		}
	}
}
MOTION
Frames: 14
Frame Time: 0.016667
0.016490 17.194090 -2.004400 -5.620029 -3.197259 4.247787 -15.556726 12.877181 3.336077 5.014817 0.485751 -2.277021 -10.203683 4.148836 -3.338760 0.148137 4.301200 3.353442 0.177370 -0.034700 0.093280 17.762089 -10.431339 3.039433 -25.852880 0.436813 -9.679497 5.097051 -4.028826 0.039968 -0.375607 -4.139669 3.029783 -0.057610 0.224560 0.165340 -2.259624 -1.617295 -8.155352 -1.337287 2.849540 1.049450 8.219544 1.823168 -2.842722 2.091057 0.132513 -14.756403 -3.450343 1.971443 50.511432 -0.392880 0.906090 2.441090 -15.167398 -13.252120 6.160698 5.346035 3.967361 0.295070 6.563315 -5.668058 -0.272353 -3.921935 2.679578 0.371670 0.135310 0.017270 0.189130 13.270346 14.494554 9.860582 -6.373534 -1.454387 -0.861430 -3.646394 -3.984503 0.061563 2.711676 -1.063825 -0.106980 0.146120 -0.036370 -0.101840 
0.012560 17.195970 -2.002080 -5.636136 -3.231430 4.327162 -15.555933 12.877648 3.333242 5.013924 0.464901 -2.368237 -10.175954 4.145796 -3.291713 0.149606 4.287633 3.355327 0.177850 -0.036020 0.098960 17.761558 -10.433687 3.044644 -25.738765 0.453392 -9.713003 5.087787 -4.007811 -0.035227 -0.378140 -4.126025 3.032059 -0.062040 0.218360 0.168910 -2.258701 -1.608746 -8.155797 -1.370980 2.833068 0.976766 8.192776 1.825244 -3.062548 2.103591 0.200641 -14.707180 -3.327906 1.897234 50.583483 -0.492820 0.947560 2.408660 -15.320527 -13.240696 6.134197 5.766411 4.339644 0.303250 6.378868 -5.804783 -0.262874 -3.915296 2.687193 0.372520 0.131750 0.022500 0.186260 13.393115 14.422400 9.798323 -6.621791 -1.549053 -0.870846 -3.568795 -4.007810 0.057480 2.714236 -1.063552 -0.101930 0.141150 -0.037280 -0.102670 
0.006520 17.198190 -1.999560 -5.827632 -3.278555 4.376470 -15.542909 12.894168 3.345900 5.186034 0.429124 -2.417098 -10.131322 4.129605 -3.345892 0.146593 4.285964 3.349671 0.185430 -0.033120 0.110020 17.768989 -10.440800 3.040517 -25.371444 0.476042 -9.710183 5.033433 -3.966928 -0.092476 -0.381972 -4.086952 3.043157 -0.063790 0.205660 0.173580 -2.287722 -1.629004 -8.171429 -0.923363 2.728839 0.981659 7.891980 1.799780 -3.276393 2.121771 0.115318 -14.688269 -3.556534 2.009231 50.788721 -0.416280 0.966040 2.114350 -15.325623 -13.113686 6.106988 6.021330 4.891295 0.316828 6.304406 -6.131947 -0.257774 -3.899446 2.696940 0.384220 0.121700 0.032010 0.180890 13.325416 14.353179 9.751448 -6.742245 -1.506016 -0.892657 -3.559612 -4.248226 0.071811 2.720858 -1.061371 -0.097100 0.134150 -0.038870 -0.107610 
-0.003920 17.201600 -1.995170 -5.873359 -3.374347 4.440085 -15.537030 12.900202 3.348991 5.206579 0.411512 -2.415948 -9.980497 4.095589 -3.412342 0.137440 4.278233 3.351617 0.190210 -0.036410 0.115020 17.773929 -10.450010 3.032563 -25.136801 0.493024 -9.779347 4.944839 -3.941512 -0.104366 -0.382843 -4.058518 3.056421 -0.067900 0.201910 0.177600 -2.301698 -1.625736 -8.165733 -0.875533 2.657871 0.862586 7.741377 1.761175 -3.450591 2.098369 0.116765 -14.644092 -3.557704 2.108864 50.855719 -0.298490 1.053630 1.995000 -15.387610 -13.067102 6.117988 6.548615 5.657587 0.366432 5.933569 -6.353072 -0.252968 -3.887697 2.707057 0.396820 0.118590 0.033700 0.179410 13.412438 14.271293 9.670688 -7.009217 -1.521992 -0.915293 -3.414360 -4.548591 0.073926 2.717977 -1.060886 -0.097220 0.130090 -0.037370 -0.114670 
-0.013730 17.205820 -1.991000 -5.991499 -3.434724 4.475437 -15.527759 12.918682 3.352269 5.331873 0.388846 -2.446906 -9.849330 4.082405 -3.406514 0.122030 4.281649 3.350751 0.187100 -0.046870 0.113110 17.779598 -10.456257 3.026357 -24.876113 0.510410 -9.797332 4.845083 -3.912058 -0.136960 -0.379740 -4.030338 3.072445 -0.071420 0.204820 0.176410 -2.322370 -1.649359 -8.168534 -0.624528 2.534669 0.804177 7.526087 1.693446 -3.627257 2.082432 0.024804 -14.608344 -3.761788 2.311569 50.932082 -0.138600 1.133910 1.914530 -15.464045 -12.987922 6.123092 6.955266 6.409164 0.417271 5.764655 -6.545749 -0.254789 -3.880102 2.707924 0.410890 0.117770 0.031340 0.177410 13.494679 14.228805 9.595211 -7.323372 -1.525008 -0.948296 -3.285757 -4.736812 0.074210 2.711618 -1.053658 -0.106330 0.134150 -0.030640 -0.121700 
-0.021930 17.207910 -1.986000 -6.095095 -3.477344 4.508315 -15.513891 12.929427 3.353842 5.425390 0.373414 -2.455662 -9.734939 4.069434 -3.426271 0.108349 4.287305 3.350756 0.180890 -0.058050 0.107490 17.790830 -10.452604 3.032535 -24.758467 0.528067 -9.786181 4.868014 -3.896640 -0.212194 -0.376468 -4.022676 3.078215 -0.072250 0.211440 0.171440 -2.358692 -1.673617 -8.178700 -0.257289 2.403414 0.753207 7.195385 1.640066 -3.818489 2.043629 -0.125029 -14.552382 -4.085914 2.560417 50.938369 0.109630 1.166990 1.940990 -15.542474 -12.872317 6.066570 7.448937 6.922237 0.473553 5.520574 -6.543338 -0.259300 -3.877103 2.706074 0.420220 0.118090 0.025500 0.176120 13.614288 14.177176 9.546039 -7.525563 -1.603046 -0.972990 -3.357089 -4.795891 0.082089 2.705642 -1.049733 -0.118640 0.141020 -0.023680 -0.126290 
-0.030100 17.208620 -1.982280 -6.183119 -3.612186 4.495553 -15.502221 12.926579 3.355629 5.539891 0.381347 -2.388684 -9.759929 4.073676 -3.508286 0.108552 4.313449 3.347887 0.170170 -0.070740 0.095020 17.803551 -10.439245 3.040206 -24.748194 0.545192 -9.804517 4.940481 -3.884680 -0.290766 -0.369721 -4.031683 3.073630 -0.073450 0.226770 0.168920 -2.393772 -1.689092 -8.184743 0.091814 2.351084 0.727657 6.925706 1.647493 -3.915523 1.994757 -0.311870 -14.434812 -4.451719 2.778026 50.668460 0.278050 1.152000 2.268110 -15.697694 -12.732681 5.952909 7.936616 7.107057 0.518740 5.361394 -6.272785 -0.272907 -3.885688 2.711608 0.414460 0.125530 0.012320 0.176590 13.838270 14.152582 9.498060 -7.878460 -1.755673 -0.986928 -3.452034 -4.928845 0.073004 2.703783 -1.056828 -0.127520 0.145050 -0.015360 -0.123840 
-0.035320 17.209370 -1.980450 -6.383446 -3.723888 4.478521 -15.485592 12.934736 3.358223 5.733203 0.369122 -2.375233 -9.745011 4.081738 -3.527579 0.105292 4.340073 3.343502 0.160930 -0.085510 0.083410 17.817245 -10.424963 3.055478 -24.703088 0.569449 -9.824359 5.087938 -3.876279 -0.388895 -0.361867 -4.040340 3.072066 -0.075460 0.242310 0.169670 -2.437658 -1.720889 -8.204738 0.668503 2.294261 0.789499 6.616662 1.670131 -4.066182 1.970703 -0.536831 -14.381740 -4.916731 2.995395 50.475952 0.435750 1.064270 2.603430 -15.758704 -12.576890 5.850061 8.210138 7.027692 0.555789 5.189001 -5.686758 -0.304802 -3.903927 2.709073 0.409890 0.134420 -0.001360 0.177160 13.909162 14.151411 9.504068 -8.100805 -1.982026 -0.981268 -3.469963 -4.957519 0.062362 2.698173 -1.062182 -0.135340 0.147610 -0.006000 -0.122580 
-0.039920 17.210200 -1.979370 -6.595683 -3.845631 4.408657 -15.471581 12.956779 3.358744 5.927946 0.359266 -2.353048 -9.656503 4.095531 -3.475042 0.092069 4.359501 3.339236 0.156660 -0.091630 0.078620 17.826831 -10.406414 3.073006 -24.646856 0.590713 -9.777072 5.216237 -3.858427 -0.525368 -0.356097 -4.045225 3.071675 -0.070550 0.252860 0.161650 -2.471740 -1.780832 -8.227590 1.258381 2.220113 0.958794 6.397029 1.685167 -4.265418 1.961460 -0.885897 -14.294756 -5.648021 3.320655 50.337287 0.587460 1.016860 2.532950 -15.679404 -12.250642 5.694769 8.183930 6.665472 0.581868 5.046927 -4.901515 -0.348973 -3.923263 2.691548 0.410590 0.137640 -0.013670 0.173370 13.831643 14.109366 9.469920 -8.321701 -2.042227 -0.976011 -3.364352 -5.028068 0.038340 2.692369 -1.059574 -0.147410 0.158690 0.002920 -0.125200 
-0.045250 17.210620 -1.978880 -6.660427 -3.921124 4.346096 -15.463604 12.965703 3.362209 5.993145 0.367936 -2.281299 -9.601699 4.095193 -3.490871 0.088735 4.371337 3.338226 0.158230 -0.086720 0.074460 17.831414 -10.398979 3.086569 -24.729068 0.594654 -9.792929 5.322059 -3.858574 -0.558459 -0.354052 -4.056795 3.065903 -0.061380 0.260550 0.158170 -2.489227 -1.800363 -8.246475 1.510167 2.158060 1.092756 6.281274 1.686412 -4.513049 1.954056 -1.107680 -14.236645 -6.068102 3.517596 50.256907 0.631320 1.008180 2.492620 -15.406883 -11.901447 5.555774 7.973000 6.183237 0.589629 5.002389 -4.200907 -0.380598 -3.943056 2.677397 0.405740 0.141430 -0.019630 0.176570 13.561873 13.973273 9.437389 -8.174499 -1.924620 -0.950005 -3.332842 -5.146782 0.024520 2.693028 -1.063863 -0.152590 0.166020 0.003860 -0.122740 
-0.053480 17.212820 -1.979570 -6.531304 -4.071595 4.284223 -15.463247 12.959040 3.365986 5.857433 0.404629 -2.155640 -9.549204 4.081564 -3.566041 0.093353 4.367135 3.339458 0.157240 -0.077110 0.070950 17.829908 -10.399202 3.104656 -25.005240 0.586258 -9.951739 5.479399 -3.878069 -0.497147 -0.348886 -4.071277 3.051206 -0.050390 0.263890 0.151130 -2.484274 -1.774363 -8.265045 1.316180 2.145363 1.221801 6.315444 1.713950 -4.863202 1.919698 -1.249742 -14.204681 -6.264636 3.694938 50.275030 0.690000 1.099040 2.520600 -14.921904 -11.487330 5.426755 7.538200 5.646018 0.575262 5.111816 -3.669234 -0.391016 -3.963140 2.662941 0.392740 0.143390 -0.022940 0.176750 13.158053 13.743886 9.399217 -7.640996 -1.585519 -0.913953 -3.475986 -5.366818 0.031700 2.707257 -1.067947 -0.154660 0.171400 0.002300 -0.116910 
-0.067710 17.216800 -1.981010 -6.519639 -4.201163 4.249606 -15.474692 12.964844 3.363505 5.908645 0.403723 -2.093462 -9.430634 4.060680 -3.616871 0.083793 4.367502 3.342745 0.169430 -0.071850 0.084540 17.821623 -10.393350 3.093120 -24.972987 0.576540 -10.062437 5.485073 -3.881432 -0.421651 -0.352495 -4.050278 3.060990 -0.047410 0.256490 0.146800 -2.453950 -1.797446 -8.250212 1.064144 2.170620 1.143683 6.481364 1.711513 -4.850850 1.894709 -1.294447 -14.113206 -6.461602 3.713964 50.394305 0.740860 1.051460 2.198490 -15.303987 -11.590977 5.401540 8.166024 5.810604 0.599246 4.947393 -3.257343 -0.419508 -3.949585 2.656992 0.410320 0.134720 -0.017520 0.179500 13.651008 13.830955 9.327678 -8.319509 -1.826251 -0.955072 -3.334901 -5.317448 0.011406 2.694253 -1.063993 -0.159840 0.177330 -0.004770 -0.125320 
-0.080790 17.220620 -1.982670 -6.400828 -4.253415 4.222500 -15.488068 12.966099 3.357469 5.814106 0.409194 -2.053214 -9.280030 4.032886 -3.639046 0.084054 4.352593 3.347348 0.174450 -0.065330 0.085960 17.811624 -10.391802 3.085843 -25.043122 0.559493 -10.159191 5.485451 -3.892627 -0.336029 -0.354517 -4.044452 3.059353 -0.045450 0.253860 0.148290 -2.418694 -1.804087 -8.234034 0.628449 2.164024 1.078238 6.697801 1.672250 -4.899485 1.839787 -1.312280 -13.999339 -6.530020 3.735965 50.380598 0.848480 1.023560 2.057890 -15.558549 -11.638458 5.361804 8.693195 5.897054 0.618440 4.738965 -2.936573 -0.437858 -3.943262 2.664343 0.411750 0.130980 -0.013000 0.182830 14.072899 13.849520 9.226426 -8.837802 -1.927413 -0.977333 -3.259596 -5.185004 -0.008976 2.687788 -1.066233 -0.156580 0.176990 -0.007850 -0.123490 
-0.090380 17.223500 -1.984220 -6.382965 -4.223322 4.149366 -15.496003 12.977014 3.353017 5.777232 0.407288 -1.984625 -9.074238 4.006827 -3.642206 0.076366 4.349631 3.351455 0.178730 -0.065580 0.090930 17.805418 -10.394907 3.072590 -25.034554 0.537334 -10.186119 5.516437 -3.916650 -0.195320 -0.352082 -4.041263 3.060639 -0.043270 0.255910 0.149930 -2.398579 -1.823285 -8.217516 0.433181 2.134526 1.078488 6.844773 1.617633 -4.821073 1.805993 -1.379612 -13.918513 -6.683317 3.731592 50.232706 0.833900 0.951860 1.922950 -15.645579 -11.619241 5.335874 8.833130 5.826398 0.627033 4.778876 -2.676923 -0.456300 -3.945725 2.660788 0.415920 0.132040 -0.014280 0.183550 14.256411 13.864626 9.166976 -9.138448 -1.939645 -0.999049 -3.223712 -5.139016 -0.023442 2.680955 -1.067616 -0.159440 0.179200 -0.009010 -0.125910 
